<?xml version='1.0' encoding='iso-8859-1'?>
<svg version="1.1" xmlns="http://www.w3.org/2000/svg" viewBox="0 0 356.588 356.588" xmlns:xlink="http://www.w3.org/1999/xlink" enable-background="new 0 0 356.588 356.588">
  <path d="m351.737,78.14l-30.697-11.593c-9.965-22.044-24.722-43.862-27.155-47.404-1.398-2.037-3.711-3.255-6.183-3.255s-4.784,1.218-6.183,3.255c-1.653,2.408-9.005,13.265-16.673,26.896l-27.968-9.135c-2.273-0.744-4.761-0.357-6.702,1.036s-3.103,3.628-3.127,6.018c-0.267,26.628-22.139,48.291-48.756,48.291-26.618,0-48.489-21.663-48.756-48.291-0.024-2.39-1.186-4.624-3.127-6.018-1.94-1.393-4.428-1.78-6.701-1.036l-41.774,13.644c-0.042,0.014-0.078,0.036-0.119,0.05-0.067,0.023-0.136,0.037-0.202,0.063l-72.763,27.479c-2.919,1.103-4.851,3.897-4.851,7.017v93.238c0,2.231 0.993,4.347 2.71,5.771 1.357,1.126 3.055,1.729 4.79,1.729 0.46,0 0.923-0.042 1.382-0.129l63.881-11.979v133.224c0,4.143 3.357,7.5 7.5,7.5h156.632c6.438,15.365 21.63,26.188 39.304,26.188 23.486,0 42.595-19.108 42.595-42.595 0-24.176-27.607-66.981-34.969-77.964v-46.353l63.881,11.979c0.459,0.087 0.922,0.129 1.382,0.129 1.735,0 3.433-0.603 4.79-1.729 1.717-1.425 2.71-3.54 2.71-5.771v-93.238c0-3.12-1.932-5.914-4.851-7.017zm-64.034-41.061c6.529,10.361 14.938,24.839 20.749,38.078 0.078,0.201 0.164,0.398 0.259,0.592 3.914,9.013 6.587,17.413 6.587,23.489 0,15.216-12.379,27.595-27.595,27.595s-27.595-12.379-27.595-27.595c0-9.801 6.949-25.639 14.856-40.36 0.037-0.064 0.07-0.131 0.105-0.196 4.252-7.903 8.772-15.474 12.634-21.603zm-272.703,132.279v-79.017l57.763-21.814v89.999l-57.763,10.832zm218.604,128.747c0,0.472 0.021,0.938 0.036,1.406h-145.877v-134.761-101.632l27.662-9.035c5.097,30.093 31.455,53.166 62.869,53.166s57.772-23.073 62.869-53.166l16.551,5.406c-6.908,13.942-12.606,28.767-12.606,39.749 0,16.71 9.677,31.196 23.717,38.168v82.359c-6.955,10.341-35.221,53.876-35.221,78.34zm42.595,27.595c-15.216,0-27.595-12.379-27.595-27.595 0-15.109 16.511-44.569 27.595-62.159 11.084,17.59 27.595,47.05 27.595,62.159 0,15.216-12.379,27.595-27.595,27.595zm65.389-156.342l-57.763-10.831v-16.878c1.278,0.116 2.57,0.184 3.878,0.184 23.486,0 42.595-19.108 42.595-42.595 0-4.196-0.834-8.954-2.247-14.009l13.537,5.113v79.016z"/>
</svg>
