<?xml version='1.0' encoding='iso-8859-1'?>
<svg version="1.1" xmlns="http://www.w3.org/2000/svg" viewBox="0 0 356.587 356.587" xmlns:xlink="http://www.w3.org/1999/xlink" enable-background="new 0 0 356.587 356.587">
  <path d="m351.737,80.912l-72.763-27.479c-0.064-0.024-0.13-0.038-0.194-0.06-0.044-0.015-0.083-0.039-0.128-0.053l-41.775-13.645c-2.271-0.74-4.761-0.357-6.702,1.037-1.941,1.393-3.103,3.628-3.126,6.018-0.267,26.628-22.139,48.291-48.756,48.291-26.618,0-48.49-21.663-48.756-48.291-0.024-2.389-1.185-4.625-3.126-6.018-1.942-1.394-4.431-1.778-6.702-1.037l-41.775,13.645c-0.045,0.015-0.084,0.038-0.128,0.054-0.064,0.022-0.129,0.036-0.193,0.06l-72.763,27.478c-2.918,1.102-4.85,3.896-4.85,7.016v93.239c0,2.231 0.993,4.347 2.71,5.771 1.357,1.126 3.055,1.729 4.79,1.729 0.46,0 0.923-0.042 1.382-0.128l63.88-11.979v133.224c0,4.142 3.358,7.5 7.5,7.5h196.063c4.142,0 7.5-3.358 7.5-7.5v-133.225l63.88,11.979c0.459,0.086 0.922,0.128 1.382,0.128 1.735,0 3.433-0.603 4.79-1.729 1.717-1.425 2.71-3.541 2.71-5.771v-93.238c0-3.12-1.931-5.914-4.85-7.016zm-336.737,91.218v-79.017l57.762-21.814v90l-57.762,10.831zm253.825,130.153h-181.063v-134.761-101.633l27.663-9.035c5.096,30.093 31.455,53.166 62.869,53.166 31.413,0 57.772-23.073 62.869-53.166l27.663,9.035v101.633 134.761zm72.761-130.153l-57.763-10.832v-90l57.763,21.814v79.018z"/>
</svg>
